<?xml version="1.0" encoding="utf-8"?>
<!-- Generator: Adobe Illustrator 23.0.0, SVG Export Plug-In . SVG Version: 6.00 Build 0)  -->
<svg version="1.1" id="Layer_1" xmlns="http://www.w3.org/2000/svg" xmlns:xlink="http://www.w3.org/1999/xlink" x="0px" y="0px"
	 viewBox="0 0 30 30" style="enable-background:new 0 0 30 30;" xml:space="preserve">
<style type="text/css">
	.st0{fill:#4DB7D8;}
</style>
<path id="Path_3" class="st0" d="M10.7,21.5c-1.2,0-2.2,1-2.2,2.2c0,1.2,1,2.2,2.2,2.2c1.2,0,2.2-1,2.2-2.2l0,0
	C12.8,22.5,11.9,21.5,10.7,21.5C10.7,21.5,10.7,21.5,10.7,21.5z M4.2,4.2v2.2h2.2l3.9,8.2l-1.5,2.7c-0.2,0.3-0.3,0.7-0.3,1
	c0,1.2,1,2.2,2.2,2.2h13v-2.2H11.1c-0.1,0-0.3-0.1-0.3-0.3c0,0,0,0,0,0l0-0.1l1-1.8h8.1c0.8,0,1.5-0.4,1.9-1.1l3.9-7
	c0.1-0.2,0.1-0.3,0.1-0.5c0-0.6-0.5-1.1-1.1-1.1h-16l-1-2.2H4.2z M21.5,21.5c-1.2,0-2.2,1-2.2,2.2c0,1.2,1,2.2,2.2,2.2
	c1.2,0,2.2-1,2.2-2.2l0,0C23.7,22.5,22.7,21.5,21.5,21.5C21.5,21.5,21.5,21.5,21.5,21.5z"/>
</svg>
