<?xml version="1.0" encoding="utf-8"?>
<!-- Generator: Adobe Illustrator 23.0.0, SVG Export Plug-In . SVG Version: 6.00 Build 0)  -->
<svg version="1.1" id="Layer_1" xmlns="http://www.w3.org/2000/svg" xmlns:xlink="http://www.w3.org/1999/xlink" x="0px" y="0px"
	 viewBox="0 0 303 303" style="enable-background:new 0 0 303 303;" xml:space="preserve">
<style type="text/css">
	.st0{fill:#F8B04B;}
	.st1{fill:#FFFFFF;}
</style>
<path class="st0" d="M247.7,302.9H55.3C25,302.9,0.1,278,0.1,247.7V55.3C0.1,25,25,0.1,55.3,0.1h192.3c30.4,0,55.2,24.9,55.2,55.2
	v192.3C302.9,278,278,302.9,247.7,302.9z"/>
<path class="st1" d="M151.5,230.6c-23.7,0-47.3,0-71,0c-13.9,0-18.3-11.4-15.5-22.5c0.3-1,1.1-2,1-3.2c-0.7-10.2,1.8-20.1,2.6-30.1
	c1-13.6,2.7-27.2,4.1-40.7c1.2-11.4,2-22.9,4-34.2c1.1-6.2,0.5-12.6,2.9-18.8c2.4-6.2,7.1-8.3,12.7-8.4c15.7-0.3,31.3-0.1,47-0.1
	c22.8,0,45.7,0.4,68.5-0.2c11.4-0.3,17.6,6.3,18,16.3c0.5,10.4,2.1,20.7,2.9,31.1c1.1,13.3,2.6,26.5,4.1,39.7
	c1.2,11.3,2.6,22.5,3.9,33.7c0.9,7.2,1.1,14.4,1.9,21.7c1.1,10.5-6.7,15.6-15.6,15.7C199.2,230.7,175.4,230.6,151.5,230.6z
	 M129.4,105.8c0-3.3,0-6.7,0-10c0-1.9-0.5-3.4-1.8-4.9c-4.2-4.6-11.4-5.3-15.9-1.4c-5,4.5-5,10.7,0.2,15.7c1.7,1.7,2.8,3.3,2.7,5.9
	c-0.2,10.1,2.3,19.1,9.7,26.9c4.7,5,9.1,9.2,15.8,11c20.7,5.6,34.9-1.8,44.5-17.8c3.8-6.3,3.7-12.8,3.7-19.5c0-2.5,0-4.3,3.1-5.8
	c2.9-1.4,4.8-5,4.5-8.7c-0.5-5.3-6.7-11.1-11.1-10.7c-7.4,0.7-11.3,4.7-11.4,11.9c-0.1,6.5-0.2,13,0,19.5c0.1,4.6-1.9,8.3-4.7,11.5
	c-6.5,7.2-15.1,7.7-23.6,5.9c-6.3-1.3-11.3-5.7-13.7-12C129.3,117.7,129.2,111.8,129.4,105.8z"/>
</svg>
