<?xml version="1.0" encoding="utf-8"?>
<!-- Generator: Adobe Illustrator 23.0.0, SVG Export Plug-In . SVG Version: 6.00 Build 0)  -->
<svg version="1.1" id="Layer_1" xmlns="http://www.w3.org/2000/svg" xmlns:xlink="http://www.w3.org/1999/xlink" x="0px" y="0px"
	 viewBox="0 0 20 20" style="enable-background:new 0 0 20 20;" xml:space="preserve">
<style type="text/css">
	.st0{fill:#FFFFFF;}
	.st1{fill:none;}
</style>
<g>
	<g id="Symbol_26_1">
		<g id="baseline-done-24px" transform="translate(1 0.779)">
			<g id="Path_109">
				<path class="st0" d="M8.1,10.5L6.6,9.1L6.2,9.6l1.9,1.9l4.1-4.1l-0.5-0.5L8.1,10.5z"/>
			</g>
		</g>
		<g id="Ellipse_6">
			<g>
				<circle class="st1" cx="10" cy="10" r="5"/>
			</g>
			<g>
				<path class="st0" d="M10,15c-2.8,0-5-2.2-5-5s2.2-5,5-5s5,2.2,5,5S12.8,15,10,15z M10,5.7c-2.4,0-4.3,1.9-4.3,4.3
					s1.9,4.3,4.3,4.3s4.3-1.9,4.3-4.3S12.4,5.7,10,5.7z"/>
			</g>
		</g>
	</g>
</g>
</svg>
