<?xml version="1.0" encoding="utf-8"?>
<!-- Generator: Adobe Illustrator 23.0.0, SVG Export Plug-In . SVG Version: 6.00 Build 0)  -->
<svg version="1.1" id="Layer_1" xmlns="http://www.w3.org/2000/svg" xmlns:xlink="http://www.w3.org/1999/xlink" x="0px" y="0px"
	 viewBox="0 0 21 21" style="enable-background:new 0 0 21 21;" xml:space="preserve">
<style type="text/css">
	.st0{fill:#BFBFBF;}
</style>
<path id="Path_89" class="st0" d="M10.4,8.3h1.8V5.6h2.7V3.8h-2.7V1.2h-1.8v2.7H7.8v1.8h2.7V8.3z M6.9,16.3c-1,0-1.8,0.8-1.8,1.8
	s0.8,1.8,1.8,1.8s1.8-0.8,1.8-1.8l0,0C8.6,17.1,7.9,16.3,6.9,16.3C6.9,16.3,6.9,16.3,6.9,16.3L6.9,16.3z M15.8,16.3
	c-1,0-1.8,0.8-1.8,1.8c0,1,0.8,1.8,1.8,1.8s1.8-0.8,1.8-1.8C17.5,17.1,16.7,16.3,15.8,16.3C15.8,16.3,15.8,16.3,15.8,16.3L15.8,16.3
	z M7,13.4l0-0.1l0.8-1.4h6.6c0.6,0,1.2-0.3,1.6-0.9l3.4-6.2l-1.5-0.9h0l-1,1.8l-2.5,4.5H8.2L8.1,9.8l-2-4.2L5.3,3.8L4.4,2.1H1.5v1.8
	h1.8l3.2,6.7l-1.2,2.2c-0.1,0.3-0.2,0.6-0.2,0.9c0,1,0.8,1.8,1.8,1.8h10.7v-1.8H7.2C7.1,13.6,7,13.5,7,13.4L7,13.4z"/>
</svg>
