<?xml version="1.0" encoding="utf-8"?>
<!-- Generator: Adobe Illustrator 23.0.0, SVG Export Plug-In . SVG Version: 6.00 Build 0)  -->
<svg version="1.1" id="Layer_1" xmlns="http://www.w3.org/2000/svg" xmlns:xlink="http://www.w3.org/1999/xlink" x="0px" y="0px"
	 viewBox="0 0 20 20" style="enable-background:new 0 0 20 20;" xml:space="preserve">
<style type="text/css">
	.st0{fill:#BFBFBF;}
</style>
<path id="Path_91" class="st0" d="M15.4,13.5c-0.6,0-1.3,0.2-1.7,0.7l-6.3-3.7c0-0.2,0.1-0.4,0.1-0.6c0-0.2,0-0.4-0.1-0.6l6.3-3.7
	c1.1,1,2.8,0.9,3.8-0.1s0.9-2.8-0.1-3.8c-1.1-1-2.8-0.9-3.8,0.1C13,2.3,12.7,3,12.7,3.7c0,0.2,0,0.4,0.1,0.6L6.5,7.9
	c-1.1-1-2.8-1-3.8,0.1s-1,2.8,0.1,3.8c1,1,2.6,1,3.6,0l6.3,3.7c0,0.2-0.1,0.4-0.1,0.6c0,1.4,1.2,2.6,2.6,2.6c1.4,0,2.6-1.2,2.6-2.6
	C18,14.7,16.8,13.5,15.4,13.5L15.4,13.5z M15.4,2.8c0.5,0,0.9,0.4,0.9,0.9s-0.4,0.9-0.9,0.9c-0.5,0-0.9-0.4-0.9-0.9l0,0
	C14.5,3.2,14.9,2.8,15.4,2.8z M4.7,10.8c-0.5,0-0.9-0.4-0.9-0.9S4.2,9,4.7,9s0.9,0.4,0.9,0.9l0,0C5.6,10.4,5.2,10.8,4.7,10.8
	L4.7,10.8z M15.4,17c-0.5,0-0.9-0.4-0.9-0.9c0-0.5,0.4-0.9,0.9-0.9c0.5,0,0.9,0.4,0.9,0.9l0,0C16.3,16.6,15.9,17,15.4,17L15.4,17z"
	/>
</svg>
