<?xml version="1.0" encoding="utf-8"?>
<!-- Generator: Adobe Illustrator 23.0.0, SVG Export Plug-In . SVG Version: 6.00 Build 0)  -->
<svg version="1.1" id="Layer_1" xmlns="http://www.w3.org/2000/svg" xmlns:xlink="http://www.w3.org/1999/xlink" x="0px" y="0px"
	 viewBox="0 0 303 303" style="enable-background:new 0 0 303 303;" xml:space="preserve">
<style type="text/css">
	.st0{fill:#FC5E7D;}
	.st1{fill:#FEFEFE;}
</style>
<path class="st0" d="M247.7,302.9H55.3C25,302.9,0.1,278,0.1,247.7V55.3C0.1,25,25,0.1,55.3,0.1h192.3c30.4,0,55.2,24.9,55.2,55.2
	v192.3C302.9,278,278,302.9,247.7,302.9z"/>
<g>
	<path class="st1" d="M223.6,140c0-17.7,0-35.3,0-53c0-9.9-1.8-11.7-11.5-11.7c-34.1,0-68.3,0-102.4,0c-10.1,0-11.6,1.5-11.6,11.4
		c0,30.1,0,60.3,0,90.4c0,11.4,0,11.4-11.5,12c-5,0.3-7.2,2.6-7.3,7.5c-0.2,12.2,10.9,26.5,22.7,29.2c5,1.1,10.2,1.7,15.3,1.7
		c22.8,0.1,45.6,0.1,68.4,0c6.1,0,12.4-0.2,18.1-2.7c13.5-6,19.6-16.9,19.7-31.3C223.7,175.7,223.6,157.9,223.6,140z M210.9,144.1
		c0,16.3,0.1,32.7,0,49c-0.1,10.7-5.3,18.1-14.2,20.4c-10.9,2.8-21.3-4.2-23-15.4c-1.2-8.1-2.1-8.9-10.2-8.9
		c-15.5,0-31-0.1-46.5,0.1c-4.4,0.1-6.2-1-6.1-5.8c0.2-29.8,0.2-59.6,0-89.5c0-4.8,1.7-5.8,6.1-5.8c29.3,0.2,58.6,0.2,88,0
		c4.7,0,6,1.6,6,6.1C210.8,110.8,210.9,127.5,210.9,144.1z"/>
	<path class="st1" d="M173.6,132.2c4.8,0,9.6,0.1,14.4-0.1c3.1-0.1,4.3,1.2,4,4.1c0,0.2,0,0.3,0,0.5c0,9.8,0.6,8.2-8.2,8.3
		c-8.1,0.1-16.3-0.3-24.4,0.1c-5.5,0.3-5.2-2.9-5.3-6.6c-0.1-4,0.3-6.8,5.5-6.4C164.3,132.5,168.9,132.2,173.6,132.2z"/>
	<path class="st1" d="M173.5,120c-5,0-10-0.1-14.9,0c-2.8,0.1-4.2-0.9-4.4-4c-0.5-8.7-0.4-8.9,8.3-8.9c8.3,0,16.6,0.1,24.9-0.1
		c3.4-0.1,5,0.9,4.6,4.5c-0.2,1.6-0.1,3.3,0,5c0.1,2.5-1,3.6-3.6,3.5C183.5,119.9,178.5,120,173.5,120z"/>
	<path class="st1" d="M173.1,170.2c-5,0-10-0.1-14.9,0c-4,0.1-4.2-2.5-3.9-5.3c0.3-2.9-1.7-7.4,3.7-7.5c10.3-0.2,20.6,0,30.8-0.1
		c2.1,0,2.9,0.9,3.1,2.9c1.3,9.1,0.5,10-8.5,10C180.1,170.2,176.6,170.2,173.1,170.2z"/>
	<path class="st1" d="M135.5,170c-5.8,1.6-5.6-2.1-5.8-6.4c-0.2-4.8,0.9-6.9,6.2-6.5c6.6,0.5,6.3,0.2,6.7,7.2
		C143.1,170.2,140.1,170.7,135.5,170z"/>
	<path class="st1" d="M135.2,132.2c7.3,0,7.1,0.1,7.5,6.7c0.4,5.5-2.1,6.1-6.7,6.3c-5.4,0.3-6.4-1.7-6.3-6.6
		C129.8,134.1,130.2,130.9,135.2,132.2z"/>
	<path class="st1" d="M136.4,108.1c5-1.3,6,1.1,5.8,5.5c-0.3,6.3-0.2,6.1-6.5,6.5c-5.1,0.3-5.8-2-6.1-6.4
		C129.4,108.1,131.9,107.1,136.4,108.1z"/>
</g>
</svg>
