<?xml version="1.0" encoding="utf-8"?>
<!-- Generator: Adobe Illustrator 23.0.0, SVG Export Plug-In . SVG Version: 6.00 Build 0)  -->
<svg version="1.1" id="Layer_1" xmlns="http://www.w3.org/2000/svg" xmlns:xlink="http://www.w3.org/1999/xlink" x="0px" y="0px"
	 viewBox="0 0 30 30" style="enable-background:new 0 0 30 30;" xml:space="preserve">
<style type="text/css">
	.st0{fill:#4DB7D8;}
</style>
<path id="Path_1" class="st0" d="M15,4.2C9,4.2,4.2,9,4.2,15S9,25.8,15,25.8S25.8,21,25.8,15c0,0,0,0,0,0C25.8,9,21,4.2,15,4.2z
	 M15,7.4c1.8,0,3.2,1.5,3.2,3.3s-1.5,3.2-3.3,3.2c-1.8,0-3.2-1.5-3.2-3.3C11.7,8.9,13.2,7.4,15,7.4C15,7.4,15,7.4,15,7.4z M15,22.8
	c-2.6,0-5.1-1.3-6.5-3.5c0-2.2,4.3-3.3,6.5-3.3s6.5,1.2,6.5,3.3C20.1,21.5,17.6,22.8,15,22.8z"/>
</svg>
