<?xml version="1.0" encoding="utf-8"?>
<!-- Generator: Adobe Illustrator 19.2.1, SVG Export Plug-In . SVG Version: 6.00 Build 0)  -->
<svg version="1.1" id="Layer_1" xmlns="http://www.w3.org/2000/svg" xmlns:xlink="http://www.w3.org/1999/xlink" x="0px" y="0px"
	 viewBox="0 0 100 48" style="enable-background:new 0 0 100 48;" xml:space="preserve">
<style type="text/css">
	.st0{fill:#298BC8;}
</style>
<g>
	<path class="st0" d="M4.1,36c2.7,1.4,6.9,2.8,11.2,2.8c4.6,0,7.1-1.9,7.1-4.8c0-2.8-2.1-4.4-7.5-6.3C7.4,25,2.6,20.9,2.6,14.4
		C2.6,6.8,9,0.9,19.5,0.9c5,0,8.8,1.1,11.4,2.3l-2.3,8.2c-1.8-0.9-5-2.1-9.4-2.1s-6.5,2-6.5,4.3c0,2.9,2.5,4.1,8.3,6.3
		c7.9,2.9,11.6,7,11.6,13.3c0,7.5-5.8,13.9-18,13.9c-5.1,0-10.2-1.3-12.7-2.7L4.1,36z"/>
	<path class="st0" d="M49.7,1.7v44.7H39.6V1.7H49.7z"/>
	<path class="st0" d="M58.5,2.3c3.7-0.6,8.6-0.9,13.7-0.9c8.5,0,14,1.5,18.3,4.8c4.6,3.4,7.6,9,7.6,16.8c0,8.6-3.1,14.5-7.4,18.1
		C86,45,78.8,46.9,70.1,46.9c-5.2,0-9-0.3-11.5-0.7L58.5,2.3L58.5,2.3z M68.6,38.8c0.9,0.2,2.3,0.2,3.5,0.2
		c9.2,0.1,15.1-5,15.1-15.7c0.1-9.3-5.3-14.2-14-14.2c-2.3,0-3.7,0.2-4.6,0.4V38.8z"/>
</g>
</svg>
